<?xml version="1.0" encoding="UTF-8" standalone="no"?>
<!-- Created with Inkscape (http://www.inkscape.org/) -->

<svg
   xmlns:dc="http://purl.org/dc/elements/1.1/"
   xmlns:cc="http://creativecommons.org/ns#"
   xmlns:rdf="http://www.w3.org/1999/02/22-rdf-syntax-ns#"
   xmlns:svg="http://www.w3.org/2000/svg"
   xmlns="http://www.w3.org/2000/svg"
   xmlns:sodipodi="http://sodipodi.sourceforge.net/DTD/sodipodi-0.dtd"
   xmlns:inkscape="http://www.inkscape.org/namespaces/inkscape"
   version="1.1"
   width="56"
   height="87"
   id="svg2"
   inkscape:version="0.48.3.1 r9886"
   sodipodi:docname="card_looser.svg">
  <sodipodi:namedview
     pagecolor="#ffffff"
     bordercolor="#666666"
     borderopacity="1"
     objecttolerance="10"
     gridtolerance="10"
     guidetolerance="10"
     inkscape:pageopacity="0"
     inkscape:pageshadow="2"
     inkscape:window-width="1535"
     inkscape:window-height="876"
     id="namedview16"
     showgrid="false"
     inkscape:zoom="3.8362575"
     inkscape:cx="65.633723"
     inkscape:cy="44.149688"
     inkscape:window-x="65"
     inkscape:window-y="24"
     inkscape:window-maximized="1"
     inkscape:current-layer="svg2" />
  <defs
     id="defs4">
    <inkscape:perspective
       sodipodi:type="inkscape:persp3d"
       id="perspective3484"
       inkscape:vp_x="-50 : 600 : 1"
       inkscape:vp_y="0 : 1000 : 0"
       inkscape:vp_z="700 : 600 : 1"
       inkscape:persp3d-origin="300 : 400 : 1" />
    <inkscape:perspective
       inkscape:persp3d-origin="300 : 400 : 1"
       inkscape:vp_z="700 : 600 : 1"
       inkscape:vp_y="0 : 1000 : 0"
       inkscape:vp_x="-50 : 600 : 1"
       id="perspective2947"
       sodipodi:type="inkscape:persp3d" />
    <inkscape:perspective
       inkscape:persp3d-origin="300 : 400 : 1"
       inkscape:vp_z="700 : 600 : 1"
       inkscape:vp_y="0 : 1000 : 0"
       inkscape:vp_x="-50 : 600 : 1"
       id="perspective2996"
       sodipodi:type="inkscape:persp3d" />
    <inkscape:perspective
       inkscape:persp3d-origin="300 : 400 : 1"
       inkscape:vp_z="700 : 600 : 1"
       inkscape:vp_y="0 : 1000 : 0"
       inkscape:vp_x="-50 : 600 : 1"
       id="perspective3052"
       sodipodi:type="inkscape:persp3d" />
    <inkscape:perspective
       id="perspective9"
       inkscape:persp3d-origin="372.04724 : 350.78739 : 1"
       inkscape:vp_z="744.09448 : 526.18109 : 1"
       inkscape:vp_y="0 : 1000 : 0"
       inkscape:vp_x="0 : 526.18109 : 1"
       sodipodi:type="inkscape:persp3d" />
    <linearGradient
       id="linearGradient3569">
      <stop
         id="stop3571"
         offset="0"
         style="stop-color:#ffc200;stop-opacity:1;" />
      <stop
         style="stop-color:#d34028;stop-opacity:1;"
         offset="0.2632609"
         id="stop3577" />
      <stop
         id="stop3573"
         offset="1"
         style="stop-color:#960a00;stop-opacity:1;" />
    </linearGradient>
    <inkscape:perspective
       sodipodi:type="inkscape:persp3d"
       id="perspective3484-7"
       inkscape:vp_x="-50 : 600 : 1"
       inkscape:vp_y="0 : 1000 : 0"
       inkscape:vp_z="700 : 600 : 1"
       inkscape:persp3d-origin="300 : 400 : 1" />
    <inkscape:perspective
       inkscape:persp3d-origin="300 : 400 : 1"
       inkscape:vp_z="700 : 600 : 1"
       inkscape:vp_y="0 : 1000 : 0"
       inkscape:vp_x="-50 : 600 : 1"
       id="perspective2947-1"
       sodipodi:type="inkscape:persp3d" />
    <inkscape:perspective
       inkscape:persp3d-origin="300 : 400 : 1"
       inkscape:vp_z="700 : 600 : 1"
       inkscape:vp_y="0 : 1000 : 0"
       inkscape:vp_x="-50 : 600 : 1"
       id="perspective2996-8"
       sodipodi:type="inkscape:persp3d" />
    <inkscape:perspective
       inkscape:persp3d-origin="300 : 400 : 1"
       inkscape:vp_z="700 : 600 : 1"
       inkscape:vp_y="0 : 1000 : 0"
       inkscape:vp_x="-50 : 600 : 1"
       id="perspective3052-8"
       sodipodi:type="inkscape:persp3d" />
    <inkscape:perspective
       id="perspective9-3"
       inkscape:persp3d-origin="372.04724 : 350.78739 : 1"
       inkscape:vp_z="744.09448 : 526.18109 : 1"
       inkscape:vp_y="0 : 1000 : 0"
       inkscape:vp_x="0 : 526.18109 : 1"
       sodipodi:type="inkscape:persp3d" />
    <linearGradient
       id="linearGradient3569-9">
      <stop
         id="stop3571-3"
         offset="0"
         style="stop-color:#ffc200;stop-opacity:1;" />
      <stop
         style="stop-color:#d34028;stop-opacity:1;"
         offset="0.2632609"
         id="stop3577-3" />
      <stop
         id="stop3573-3"
         offset="1"
         style="stop-color:#960a00;stop-opacity:1;" />
    </linearGradient>
  </defs>
  <metadata
     id="metadata7">
    <rdf:RDF>
      <cc:Work
         rdf:about="">
        <dc:format>image/svg+xml</dc:format>
        <dc:type
           rdf:resource="http://purl.org/dc/dcmitype/StillImage" />
        <dc:title></dc:title>
      </cc:Work>
    </rdf:RDF>
  </metadata>
  <rect
     style="fill:#ffffff;stroke:#000000;stroke-width:0.33651042px;stroke-linecap:butt;stroke-linejoin:miter;stroke-opacity:1"
     id="rect2991"
     y="0.17017365"
     x="0.17192459"
     ry="8.6955986"
     height="86.66349"
     width="55.66349" />
  <text
     x="17.737604"
     y="52.740906"
     transform="matrix(0.53476626,-0.8563439,0.84012954,0.52464079,0,0)"
     id="text2993-3"
     xml:space="preserve"
     style="font-size:15.43686008px;font-style:normal;font-weight:normal;text-align:center;line-height:125%;letter-spacing:0px;word-spacing:0px;text-anchor:middle;fill:#000000;fill-opacity:1;stroke:none;font-family:Sans"
     sodipodi:linespacing="125%"><tspan
       x="-21.461437"
       y="52.740906"
       id="tspan2995-7"
       style="font-size:15.08023548px;text-align:center;text-anchor:middle">You Win !</tspan></text>
  <g
     id="g3924"
     transform="translate(-22.003506,95.903986)">
    <path
       transform="translate(48,-1)"
       d="m 14.5,8.5 c 0,3.865993 -3.134007,7 -7,7 -3.8659932,0 -7,-3.134007 -7,-7 0,-3.8659932 3.1340068,-7 7,-7 3.865993,0 7,3.1340068 7,7 z"
       sodipodi:ry="7"
       sodipodi:rx="7"
       sodipodi:cy="8.5"
       sodipodi:cx="7.5"
       id="path3279"
       style="fill:#fffa72;fill-opacity:1;stroke:#404040;stroke-width:1;stroke-linecap:round;stroke-linejoin:round;stroke-miterlimit:4;stroke-opacity:1;stroke-dasharray:none;stroke-dashoffset:0"
       sodipodi:type="arc" />
    <path
       sodipodi:nodetypes="csc"
       id="path3281"
       d="m 51.5,10.5 c 0,-2 2,-3 4,-3 2,0 4,1 4,3"
       style="fill:none;stroke:#404040;stroke-width:1;stroke-linecap:round;stroke-linejoin:round;stroke-miterlimit:4;stroke-opacity:1;stroke-dasharray:none;stroke-dashoffset:0"
       inkscape:connector-curvature="0" />
    <path
       sodipodi:type="arc"
       style="fill:#404040;fill-opacity:1;stroke:#404040;stroke-width:1;stroke-linecap:round;stroke-linejoin:round;stroke-miterlimit:4;stroke-opacity:1;stroke-dasharray:none;stroke-dashoffset:0"
       id="path3283"
       sodipodi:cx="20.5"
       sodipodi:cy="4.5"
       sodipodi:rx="1"
       sodipodi:ry="1"
       d="m 21.5,4.5 c 0,0.5522847 -0.447715,1 -1,1 -0.552285,0 -1,-0.4477153 -1,-1 0,-0.5522847 0.447715,-1 1,-1 0.552285,0 1,0.4477153 1,1 z"
       transform="translate(33,0)" />
    <path
       d="m 21.5,4.5 c 0,0.5522847 -0.447715,1 -1,1 -0.552285,0 -1,-0.4477153 -1,-1 0,-0.5522847 0.447715,-1 1,-1 0.552285,0 1,0.4477153 1,1 z"
       sodipodi:ry="1"
       sodipodi:rx="1"
       sodipodi:cy="4.5"
       sodipodi:cx="20.5"
       id="path3285"
       style="fill:#404040;fill-opacity:1;stroke:#404040;stroke-width:1;stroke-linecap:round;stroke-linejoin:round;stroke-miterlimit:4;stroke-opacity:1;stroke-dasharray:none;stroke-dashoffset:0"
       sodipodi:type="arc"
       transform="translate(37,0)" />
  </g>
  <g
     id="g3118"
     transform="translate(-121.03728,5.3901087)">
    <path
       transform="translate(128,-1)"
       d="m 14.5,8.5 c 0,3.865993 -3.134007,7 -7,7 -3.8659932,0 -7,-3.134007 -7,-7 0,-3.8659932 3.1340068,-7 7,-7 3.865993,0 7,3.1340068 7,7 z"
       sodipodi:ry="7"
       sodipodi:rx="7"
       sodipodi:cy="8.5"
       sodipodi:cx="7.5"
       id="path3612"
       style="fill:#71c837;fill-opacity:1;stroke:#404040;stroke-width:1;stroke-linecap:round;stroke-linejoin:round;stroke-miterlimit:4;stroke-opacity:1;stroke-dasharray:none;stroke-dashoffset:0"
       sodipodi:type="arc" />
    <path
       sodipodi:nodetypes="czsz"
       id="path3614"
       d="m 139.5,7.5000001 -8,0 C 131.5,10.5 133.5,11.5 135.5,11.5 c 2,0 4,-1 4,-3.9999999 z"
       style="fill:#ffffff;fill-opacity:1;stroke:#404040;stroke-width:1;stroke-linecap:round;stroke-linejoin:round;stroke-miterlimit:4;stroke-opacity:1;stroke-dasharray:none;stroke-dashoffset:0"
       inkscape:connector-curvature="0" />
    <path
       style="fill:none;stroke:#404040;stroke-width:1;stroke-linecap:round;stroke-linejoin:round;stroke-miterlimit:4;stroke-opacity:1;stroke-dasharray:none;stroke-dashoffset:0"
       d="m 131.5,5.5 c 0,-2 3,-2 3,0"
       id="path3620"
       sodipodi:nodetypes="cc"
       inkscape:connector-curvature="0" />
    <path
       sodipodi:nodetypes="cc"
       id="path3622"
       d="m 136.5,5.5 c 0,-2 3,-2 3,0"
       style="fill:none;stroke:#404040;stroke-width:1;stroke-linecap:round;stroke-linejoin:round;stroke-miterlimit:4;stroke-opacity:1;stroke-dasharray:none;stroke-dashoffset:0"
       inkscape:connector-curvature="0" />
  </g>
  <g
     transform="translate(-93.95538,66.613727)"
     id="g3847">
    <path
       sodipodi:type="arc"
       style="fill:#71c837;fill-opacity:1;stroke:#404040;stroke-width:1;stroke-linecap:round;stroke-linejoin:round;stroke-miterlimit:4;stroke-opacity:1;stroke-dasharray:none;stroke-dashoffset:0"
       id="path3849"
       sodipodi:cx="7.5"
       sodipodi:cy="8.5"
       sodipodi:rx="7"
       sodipodi:ry="7"
       d="m 14.5,8.5 c 0,3.865993 -3.134007,7 -7,7 -3.8659932,0 -7,-3.134007 -7,-7 0,-3.8659932 3.1340068,-7 7,-7 3.865993,0 7,3.1340068 7,7 z"
       transform="translate(128,-1)" />
    <path
       inkscape:connector-curvature="0"
       style="fill:#ffffff;fill-opacity:1;stroke:#404040;stroke-width:1;stroke-linecap:round;stroke-linejoin:round;stroke-miterlimit:4;stroke-opacity:1;stroke-dasharray:none;stroke-dashoffset:0"
       d="m 139.5,7.5000001 -8,0 C 131.5,10.5 133.5,11.5 135.5,11.5 c 2,0 4,-1 4,-3.9999999 z"
       id="path3851"
       sodipodi:nodetypes="czsz" />
    <path
       inkscape:connector-curvature="0"
       sodipodi:nodetypes="cc"
       id="path3853"
       d="m 131.5,5.5 c 0,-2 3,-2 3,0"
       style="fill:none;stroke:#404040;stroke-width:1;stroke-linecap:round;stroke-linejoin:round;stroke-miterlimit:4;stroke-opacity:1;stroke-dasharray:none;stroke-dashoffset:0" />
    <path
       inkscape:connector-curvature="0"
       style="fill:none;stroke:#404040;stroke-width:1;stroke-linecap:round;stroke-linejoin:round;stroke-miterlimit:4;stroke-opacity:1;stroke-dasharray:none;stroke-dashoffset:0"
       d="m 136.5,5.5 c 0,-2 3,-2 3,0"
       id="path3855"
       sodipodi:nodetypes="cc" />
  </g>
  <g
     transform="translate(-22.003506,95.903986)"
     id="g3876">
    <path
       sodipodi:type="arc"
       style="fill:#fffa72;fill-opacity:1;stroke:#404040;stroke-width:1;stroke-linecap:round;stroke-linejoin:round;stroke-miterlimit:4;stroke-opacity:1;stroke-dasharray:none;stroke-dashoffset:0"
       id="path3878"
       sodipodi:cx="7.5"
       sodipodi:cy="8.5"
       sodipodi:rx="7"
       sodipodi:ry="7"
       d="m 14.5,8.5 c 0,3.865993 -3.134007,7 -7,7 -3.8659932,0 -7,-3.134007 -7,-7 0,-3.8659932 3.1340068,-7 7,-7 3.865993,0 7,3.1340068 7,7 z"
       transform="translate(48,-1)" />
    <path
       inkscape:connector-curvature="0"
       style="fill:none;stroke:#404040;stroke-width:1;stroke-linecap:round;stroke-linejoin:round;stroke-miterlimit:4;stroke-opacity:1;stroke-dasharray:none;stroke-dashoffset:0"
       d="m 51.5,10.5 c 0,-2 2,-3 4,-3 2,0 4,1 4,3"
       id="path3880"
       sodipodi:nodetypes="csc" />
    <path
       transform="translate(33,0)"
       d="m 21.5,4.5 c 0,0.5522847 -0.447715,1 -1,1 -0.552285,0 -1,-0.4477153 -1,-1 0,-0.5522847 0.447715,-1 1,-1 0.552285,0 1,0.4477153 1,1 z"
       sodipodi:ry="1"
       sodipodi:rx="1"
       sodipodi:cy="4.5"
       sodipodi:cx="20.5"
       id="path3882"
       style="fill:#404040;fill-opacity:1;stroke:#404040;stroke-width:1;stroke-linecap:round;stroke-linejoin:round;stroke-miterlimit:4;stroke-opacity:1;stroke-dasharray:none;stroke-dashoffset:0"
       sodipodi:type="arc" />
    <path
       transform="translate(37,0)"
       sodipodi:type="arc"
       style="fill:#404040;fill-opacity:1;stroke:#404040;stroke-width:1;stroke-linecap:round;stroke-linejoin:round;stroke-miterlimit:4;stroke-opacity:1;stroke-dasharray:none;stroke-dashoffset:0"
       id="path3884"
       sodipodi:cx="20.5"
       sodipodi:cy="4.5"
       sodipodi:rx="1"
       sodipodi:ry="1"
       d="m 21.5,4.5 c 0,0.5522847 -0.447715,1 -1,1 -0.552285,0 -1,-0.4477153 -1,-1 0,-0.5522847 0.447715,-1 1,-1 0.552285,0 1,0.4477153 1,1 z" />
  </g>
</svg>
